<svg id="Layer_1" data-name="Layer 1" xmlns="http://www.w3.org/2000/svg" viewBox="0 0 538.53 136"><title>Artboard 35</title><path d="M68,136a68,68,0,1,1,68-68A68.08,68.08,0,0,1,68,136ZM68,3a65,65,0,1,0,65,65A65.08,65.08,0,0,0,68,3Z" style="fill:#3a8da0"/><path d="M68,136a1.5,1.5,0,0,1-1.5-1.5V1.5a1.5,1.5,0,0,1,3,0v133A1.5,1.5,0,0,1,68,136Z" style="fill:#3a8da0"/><path d="M68,64a1.5,1.5,0,0,1-1.5-1.5,13.17,13.17,0,0,0-4.14-9.77c-5.82-5.66-16.3-7.44-24.15-7.23-7,.19-14.14-4.56-17.29-11.56a15.43,15.43,0,0,1,2.86-17.58A1.5,1.5,0,1,1,26,18.41a12.54,12.54,0,0,0-2.31,14.3c2.62,5.83,8.69,9.94,14.47,9.79,8.46-.23,19.84,1.77,26.32,8.08a16.08,16.08,0,0,1,5,11.92A1.5,1.5,0,0,1,68,64Z" style="fill:#3a8da0"/><path d="M68,64a1.5,1.5,0,0,1-1.5-1.5,16.08,16.08,0,0,1,5-11.92C78,44.27,89.4,42.26,97.87,42.5h.33c5.66,0,11.57-4.07,14.14-9.79A12.54,12.54,0,0,0,110,18.41a1.5,1.5,0,0,1,2.19-2.05,15.43,15.43,0,0,1,2.86,17.58c-3.15,7-10.27,11.75-17.29,11.56-7.86-.21-18.33,1.57-24.15,7.23A13.17,13.17,0,0,0,69.5,62.5,1.5,1.5,0,0,1,68,64Z" style="fill:#3a8da0"/><path d="M68,131a1.5,1.5,0,0,1-1.5-1.5A17.3,17.3,0,0,0,61,117c-5.37-5.24-14.27-8.37-23.2-8.15-13.13.33-30.21-5.3-35.19-22.18a1.5,1.5,0,0,1,2.88-.84c4.49,15.24,20.22,20.31,32.23,20,9.89-.22,19.36,3.13,25.38,9a20.22,20.22,0,0,1,6.42,14.67A1.5,1.5,0,0,1,68,131Z" style="fill:#3a8da0"/><path d="M68.2,131a1.5,1.5,0,0,1-1.5-1.5,20.22,20.22,0,0,1,6.42-14.67c6-5.88,15.5-9.26,25.37-9,12.13.29,27.49-2.94,32-20a1.5,1.5,0,0,1,2.9.78c-3.94,14.77-16.33,22.67-35,22.21-8.9-.22-17.83,2.91-23.2,8.15a17.26,17.26,0,0,0-5.52,12.53A1.5,1.5,0,0,1,68.2,131Z" style="fill:#3a8da0"/><path d="M68,101.5a1.5,1.5,0,0,1-1.5-1.5,20.75,20.75,0,0,1,6.33-15.38c9.7-9.5,26.75-10.18,33.64-10,8.77.18,16.61-3,20.86-8.63,3.71-4.89,4.51-11.34,2.3-18.66a1.5,1.5,0,1,1,2.87-.87c3.15,10.46.23,17.38-2.78,21.34-4.83,6.36-13.5,10-23.32,9.82-13.55-.29-25.3,3.15-31.47,9.18A17.87,17.87,0,0,0,69.5,100,1.5,1.5,0,0,1,68,101.5Z" style="fill:#3a8da0"/><path d="M68,101.5a1.5,1.5,0,0,1-1.5-1.5,17.87,17.87,0,0,0-5.43-13.24c-6.17-6-18-9.46-31.47-9.18-9.76.23-18.48-3.46-23.31-9.82-3-4-5.94-10.88-2.79-21.34a1.5,1.5,0,1,1,2.87.87C4.16,54.61,5,61.06,8.67,66c4.26,5.59,12.06,8.81,20.86,8.63,6.88-.15,23.94.54,33.64,10A20.75,20.75,0,0,1,69.5,100,1.5,1.5,0,0,1,68,101.5Z" style="fill:#3a8da0"/><path d="M165.21,104.53V49.14a1,1,0,0,1,1.06-1.09c.58,0,.89.31,1.13.9l23.67,53.59h.16l23.55-53.63a1.13,1.13,0,0,1,1.17-.86,1,1,0,0,1,1.1,1.09v55.39c0,.67-.35,1.06-.94,1.06a1,1,0,0,1-1-1.06V53.12H215L192.4,104.41a1.27,1.27,0,0,1-1.25.94,1.29,1.29,0,0,1-1.29-.9L167.28,53.12h-.15v51.41a1,1,0,1,1-1.92,0Z" style="fill:#3a8da0"/><path d="M225.91,51.6a1.86,1.86,0,1,1,1.84,1.84A1.83,1.83,0,0,1,225.91,51.6Zm.9,52.93V64.84a1,1,0,1,1,1.92,0v39.69a1,1,0,1,1-1.92,0Z" style="fill:#3a8da0"/><path d="M238.14,104.53V64.77a.88.88,0,0,1,.86-1,.89.89,0,0,1,.94,1v9.14H240c1.79-6.14,7.3-10.12,14.57-10.12,8.67,0,14.88,5.78,14.88,14.92v25.82a1,1,0,1,1-1.92,0V78.83c0-8.24-5.62-13.28-13.32-13.28-8.51,0-14.18,6.21-14.18,15.07v23.91a1,1,0,1,1-1.91,0Z" style="fill:#3a8da0"/><path d="M276.19,84.69c0-12.46,7.15-20.9,17.3-20.9a16.1,16.1,0,0,1,15.82,12.46h.08V49.1a.94.94,0,0,1,.94-1.05,1,1,0,0,1,1,1.05v55.47a.92.92,0,0,1-.93,1,1,1,0,0,1-1-1V93.16h-.08a16.17,16.17,0,0,1-15.82,12.43C283.38,105.59,276.19,97.11,276.19,84.69Zm33.2,0c0-11.29-6.56-19.14-15.78-19.14-9.06,0-15.47,7.73-15.47,19.1s6.41,19.18,15.47,19.18C302.83,103.83,309.39,96,309.39,84.69Z" style="fill:#3a8da0"/><path d="M322.63,104.53V66.13h-5.11a.82.82,0,0,1-.94-.86.86.86,0,0,1,.94-.9h5.11V58c0-6.45,3.52-9.14,8.79-9.14,2.27,0,3.13.35,3.13,1.13,0,.47-.28.7-.78.74s-1.37-.08-2.23-.08c-4.3,0-7,2-7,7.58v6.13h9a.88.88,0,0,1,.94.9.84.84,0,0,1-.94.86h-9v38.4a1,1,0,1,1-2,0Z" style="fill:#3a8da0"/><path d="M339.94,90.86v-26a1,1,0,1,1,1.91,0V90.59c0,8.36,5.39,13.24,13.13,13.24,8,0,14.37-5.82,14.37-14.92V64.84a1,1,0,1,1,1.92,0v39.77a.86.86,0,0,1-.86,1,.87.87,0,0,1-.94-1V95.55h-.08c-1.6,5.7-7.77,10-14.65,10C346,105.59,339.94,99.88,339.94,90.86Z" style="fill:#3a8da0"/><path d="M380.68,104.53V49.1a1,1,0,1,1,1.91,0v55.43a1,1,0,1,1-1.91,0Z" style="fill:#3a8da0"/><path d="M408.57,104.53V49.18a1,1,0,0,1,1.09-1.13,1.28,1.28,0,0,1,1.14.7l37.34,52.54h.16V49.1a1,1,0,1,1,1.95,0v55.59a.8.8,0,0,1-.86.9,1,1,0,0,1-.9-.51L410.68,51.91h-.16v52.62a1,1,0,1,1-1.95,0Z" style="fill:#3a8da0"/><path d="M459.94,104.53V49.69a1,1,0,0,1,1-1.06h30.32a.92.92,0,1,1,0,1.84H461.89V75.23h27a.89.89,0,0,1,1,.94.88.88,0,0,1-1,.9h-27v27.46a1,1,0,1,1-1.95,0Z" style="fill:#3a8da0"/><path d="M515.76,104.53V50.47H496.38a.89.89,0,0,1-1-.94.88.88,0,0,1,1-.9h40.67a.92.92,0,1,1,0,1.84H517.71v54.06a1,1,0,1,1-2,0Z" style="fill:#3a8da0"/></svg>